<mxfile host="app.diagrams.net" modified="2020-07-14T08:44:42.714Z" agent="5.0 (Macintosh; Intel Mac OS X 10_15_5) AppleWebKit/537.36 (KHTML, like Gecko) Chrome/83.0.4103.116 Safari/537.36" etag="9TxuY57DNC1YkiMxOVj3" version="13.4.2" type="github">
  <diagram id="2TYzKGJqLLR_Ep3BL9gZ" name="Page-1">
    <mxGraphModel dx="2066" dy="1105" grid="1" gridSize="10" guides="1" tooltips="1" connect="1" arrows="1" fold="1" page="1" pageScale="1" pageWidth="827" pageHeight="1169" math="0" shadow="0">
      <root>
        <mxCell id="0" />
        <mxCell id="1" parent="0" />
        <mxCell id="3WNf9FvNjMq8_hzcaYvk-1" value="" style="rounded=0;whiteSpace=wrap;html=1;gradientColor=#b3b3b3;fillColor=#f5f5f5;strokeColor=#666666;" vertex="1" parent="1">
          <mxGeometry x="50" y="220" width="170" height="280" as="geometry" />
        </mxCell>
        <mxCell id="3WNf9FvNjMq8_hzcaYvk-2" value="Stack(4)" style="rounded=0;whiteSpace=wrap;html=1;fillColor=#dae8fc;strokeColor=#6c8ebf;" vertex="1" parent="1">
          <mxGeometry x="102.5" y="240" width="65" height="40" as="geometry" />
        </mxCell>
        <mxCell id="3WNf9FvNjMq8_hzcaYvk-3" value="Data(1)" style="rounded=0;whiteSpace=wrap;html=1;fillColor=#fff2cc;strokeColor=#d6b656;" vertex="1" parent="1">
          <mxGeometry x="60" y="320" width="65" height="40" as="geometry" />
        </mxCell>
        <mxCell id="3WNf9FvNjMq8_hzcaYvk-4" value="Heap(3)" style="rounded=0;whiteSpace=wrap;html=1;fillColor=#ffe6cc;strokeColor=#d79b00;" vertex="1" parent="1">
          <mxGeometry x="140" y="320" width="65" height="40" as="geometry" />
        </mxCell>
        <mxCell id="3WNf9FvNjMq8_hzcaYvk-6" value="Text(2)" style="rounded=0;whiteSpace=wrap;html=1;fillColor=#e1d5e7;strokeColor=#9673a6;" vertex="1" parent="1">
          <mxGeometry x="102.5" y="380" width="65" height="90" as="geometry" />
        </mxCell>
        <mxCell id="2" value="Logical View" style="text;html=1;align=center;verticalAlign=middle;resizable=0;points=[];autosize=1;" vertex="1" parent="1">
          <mxGeometry x="80" y="190" width="80" height="20" as="geometry" />
        </mxCell>
        <mxCell id="3WNf9FvNjMq8_hzcaYvk-37" style="edgeStyle=orthogonalEdgeStyle;curved=1;rounded=0;orthogonalLoop=1;jettySize=auto;html=1;entryX=0;entryY=0.5;entryDx=0;entryDy=0;fillColor=#e51400;strokeColor=#B20000;strokeWidth=2;" edge="1" parent="1" source="3WNf9FvNjMq8_hzcaYvk-7" target="3WNf9FvNjMq8_hzcaYvk-23">
          <mxGeometry relative="1" as="geometry">
            <Array as="points">
              <mxPoint x="270" y="235" />
              <mxPoint x="270" y="438" />
            </Array>
          </mxGeometry>
        </mxCell>
        <mxCell id="3WNf9FvNjMq8_hzcaYvk-7" value="Segment Selector" style="rounded=0;whiteSpace=wrap;html=1;" vertex="1" parent="1">
          <mxGeometry x="320" y="220" width="80" height="30" as="geometry" />
        </mxCell>
        <mxCell id="3WNf9FvNjMq8_hzcaYvk-40" style="edgeStyle=orthogonalEdgeStyle;curved=1;rounded=0;orthogonalLoop=1;jettySize=auto;html=1;entryX=0;entryY=0.5;entryDx=0;entryDy=0;strokeWidth=2;fillColor=#e51400;strokeColor=#B20000;" edge="1" parent="1" source="3WNf9FvNjMq8_hzcaYvk-8" target="3WNf9FvNjMq8_hzcaYvk-39">
          <mxGeometry relative="1" as="geometry" />
        </mxCell>
        <mxCell id="3WNf9FvNjMq8_hzcaYvk-8" value="Offset register" style="rounded=0;whiteSpace=wrap;html=1;" vertex="1" parent="1">
          <mxGeometry x="320" y="250" width="110" height="30" as="geometry" />
        </mxCell>
        <mxCell id="3WNf9FvNjMq8_hzcaYvk-36" style="edgeStyle=orthogonalEdgeStyle;rounded=0;orthogonalLoop=1;jettySize=auto;html=1;exitX=0;exitY=0.75;exitDx=0;exitDy=0;entryX=0;entryY=0.5;entryDx=0;entryDy=0;curved=1;fillColor=#e51400;strokeColor=#B20000;strokeWidth=2;" edge="1" parent="1" source="3WNf9FvNjMq8_hzcaYvk-9" target="3WNf9FvNjMq8_hzcaYvk-11">
          <mxGeometry relative="1" as="geometry" />
        </mxCell>
        <mxCell id="3WNf9FvNjMq8_hzcaYvk-9" value="Ptr to Descriptor table" style="rounded=0;whiteSpace=wrap;html=1;" vertex="1" parent="1">
          <mxGeometry x="320" y="280" width="110" height="30" as="geometry" />
        </mxCell>
        <mxCell id="3WNf9FvNjMq8_hzcaYvk-10" value="" style="shape=table;html=1;whiteSpace=wrap;startSize=0;container=1;collapsible=0;childLayout=tableLayout;" vertex="1" parent="1">
          <mxGeometry x="320" y="350" width="170" height="150" as="geometry" />
        </mxCell>
        <mxCell id="3WNf9FvNjMq8_hzcaYvk-11" value="" style="shape=partialRectangle;html=1;whiteSpace=wrap;collapsible=0;dropTarget=0;pointerEvents=0;fillColor=none;top=0;left=0;bottom=0;right=0;points=[[0,0.5],[1,0.5]];portConstraint=eastwest;" vertex="1" parent="3WNf9FvNjMq8_hzcaYvk-10">
          <mxGeometry width="170" height="25" as="geometry" />
        </mxCell>
        <mxCell id="3WNf9FvNjMq8_hzcaYvk-12" value="segment" style="shape=partialRectangle;html=1;whiteSpace=wrap;connectable=0;overflow=hidden;top=0;left=0;bottom=0;right=0;gradientColor=#b3b3b3;fillColor=#f5f5f5;strokeColor=#666666;" vertex="1" parent="3WNf9FvNjMq8_hzcaYvk-11">
          <mxGeometry width="57" height="25" as="geometry" />
        </mxCell>
        <mxCell id="3WNf9FvNjMq8_hzcaYvk-13" value="base" style="shape=partialRectangle;html=1;whiteSpace=wrap;connectable=0;overflow=hidden;top=0;left=0;bottom=0;right=0;gradientColor=#b3b3b3;fillColor=#f5f5f5;strokeColor=#666666;" vertex="1" parent="3WNf9FvNjMq8_hzcaYvk-11">
          <mxGeometry x="57" width="56" height="25" as="geometry" />
        </mxCell>
        <mxCell id="3WNf9FvNjMq8_hzcaYvk-14" value="limit" style="shape=partialRectangle;html=1;whiteSpace=wrap;connectable=0;overflow=hidden;top=0;left=0;bottom=0;right=0;gradientColor=#b3b3b3;fillColor=#f5f5f5;strokeColor=#666666;" vertex="1" parent="3WNf9FvNjMq8_hzcaYvk-11">
          <mxGeometry x="113" width="57" height="25" as="geometry" />
        </mxCell>
        <mxCell id="3WNf9FvNjMq8_hzcaYvk-15" value="" style="shape=partialRectangle;html=1;whiteSpace=wrap;collapsible=0;dropTarget=0;pointerEvents=0;fillColor=none;top=0;left=0;bottom=0;right=0;points=[[0,0.5],[1,0.5]];portConstraint=eastwest;" vertex="1" parent="3WNf9FvNjMq8_hzcaYvk-10">
          <mxGeometry y="25" width="170" height="25" as="geometry" />
        </mxCell>
        <mxCell id="3WNf9FvNjMq8_hzcaYvk-16" value="0" style="shape=partialRectangle;html=1;whiteSpace=wrap;connectable=0;overflow=hidden;fillColor=none;top=0;left=0;bottom=0;right=0;" vertex="1" parent="3WNf9FvNjMq8_hzcaYvk-15">
          <mxGeometry width="57" height="25" as="geometry" />
        </mxCell>
        <mxCell id="3WNf9FvNjMq8_hzcaYvk-17" value="" style="shape=partialRectangle;html=1;whiteSpace=wrap;connectable=0;overflow=hidden;fillColor=none;top=0;left=0;bottom=0;right=0;" vertex="1" parent="3WNf9FvNjMq8_hzcaYvk-15">
          <mxGeometry x="57" width="56" height="25" as="geometry" />
        </mxCell>
        <mxCell id="3WNf9FvNjMq8_hzcaYvk-18" value="" style="shape=partialRectangle;html=1;whiteSpace=wrap;connectable=0;overflow=hidden;fillColor=none;top=0;left=0;bottom=0;right=0;" vertex="1" parent="3WNf9FvNjMq8_hzcaYvk-15">
          <mxGeometry x="113" width="57" height="25" as="geometry" />
        </mxCell>
        <mxCell id="3WNf9FvNjMq8_hzcaYvk-19" value="" style="shape=partialRectangle;html=1;whiteSpace=wrap;collapsible=0;dropTarget=0;pointerEvents=0;fillColor=none;top=0;left=0;bottom=0;right=0;points=[[0,0.5],[1,0.5]];portConstraint=eastwest;" vertex="1" parent="3WNf9FvNjMq8_hzcaYvk-10">
          <mxGeometry y="50" width="170" height="25" as="geometry" />
        </mxCell>
        <mxCell id="3WNf9FvNjMq8_hzcaYvk-20" value="1" style="shape=partialRectangle;html=1;whiteSpace=wrap;connectable=0;overflow=hidden;fillColor=none;top=0;left=0;bottom=0;right=0;" vertex="1" parent="3WNf9FvNjMq8_hzcaYvk-19">
          <mxGeometry width="57" height="25" as="geometry" />
        </mxCell>
        <mxCell id="3WNf9FvNjMq8_hzcaYvk-21" value="0" style="shape=partialRectangle;html=1;whiteSpace=wrap;connectable=0;overflow=hidden;fillColor=none;top=0;left=0;bottom=0;right=0;" vertex="1" parent="3WNf9FvNjMq8_hzcaYvk-19">
          <mxGeometry x="57" width="56" height="25" as="geometry" />
        </mxCell>
        <mxCell id="3WNf9FvNjMq8_hzcaYvk-22" value="1000" style="shape=partialRectangle;html=1;whiteSpace=wrap;connectable=0;overflow=hidden;fillColor=none;top=0;left=0;bottom=0;right=0;" vertex="1" parent="3WNf9FvNjMq8_hzcaYvk-19">
          <mxGeometry x="113" width="57" height="25" as="geometry" />
        </mxCell>
        <mxCell id="3WNf9FvNjMq8_hzcaYvk-23" value="" style="shape=partialRectangle;html=1;whiteSpace=wrap;collapsible=0;dropTarget=0;pointerEvents=0;fillColor=none;top=0;left=0;bottom=0;right=0;points=[[0,0.5],[1,0.5]];portConstraint=eastwest;" vertex="1" parent="3WNf9FvNjMq8_hzcaYvk-10">
          <mxGeometry y="75" width="170" height="25" as="geometry" />
        </mxCell>
        <mxCell id="3WNf9FvNjMq8_hzcaYvk-24" value="2" style="shape=partialRectangle;html=1;whiteSpace=wrap;connectable=0;overflow=hidden;fillColor=none;top=0;left=0;bottom=0;right=0;" vertex="1" parent="3WNf9FvNjMq8_hzcaYvk-23">
          <mxGeometry width="57" height="25" as="geometry" />
        </mxCell>
        <mxCell id="3WNf9FvNjMq8_hzcaYvk-25" value="3000" style="shape=partialRectangle;html=1;whiteSpace=wrap;connectable=0;overflow=hidden;fillColor=none;top=0;left=0;bottom=0;right=0;" vertex="1" parent="3WNf9FvNjMq8_hzcaYvk-23">
          <mxGeometry x="57" width="56" height="25" as="geometry" />
        </mxCell>
        <mxCell id="3WNf9FvNjMq8_hzcaYvk-26" value="500" style="shape=partialRectangle;html=1;whiteSpace=wrap;connectable=0;overflow=hidden;fillColor=none;top=0;left=0;bottom=0;right=0;" vertex="1" parent="3WNf9FvNjMq8_hzcaYvk-23">
          <mxGeometry x="113" width="57" height="25" as="geometry" />
        </mxCell>
        <mxCell id="3WNf9FvNjMq8_hzcaYvk-27" value="" style="shape=partialRectangle;html=1;whiteSpace=wrap;collapsible=0;dropTarget=0;pointerEvents=0;fillColor=none;top=0;left=0;bottom=0;right=0;points=[[0,0.5],[1,0.5]];portConstraint=eastwest;" vertex="1" parent="3WNf9FvNjMq8_hzcaYvk-10">
          <mxGeometry y="100" width="170" height="25" as="geometry" />
        </mxCell>
        <mxCell id="3WNf9FvNjMq8_hzcaYvk-28" value="3" style="shape=partialRectangle;html=1;whiteSpace=wrap;connectable=0;overflow=hidden;fillColor=none;top=0;left=0;bottom=0;right=0;" vertex="1" parent="3WNf9FvNjMq8_hzcaYvk-27">
          <mxGeometry width="57" height="25" as="geometry" />
        </mxCell>
        <mxCell id="3WNf9FvNjMq8_hzcaYvk-29" value="1500" style="shape=partialRectangle;html=1;whiteSpace=wrap;connectable=0;overflow=hidden;fillColor=none;top=0;left=0;bottom=0;right=0;" vertex="1" parent="3WNf9FvNjMq8_hzcaYvk-27">
          <mxGeometry x="57" width="56" height="25" as="geometry" />
        </mxCell>
        <mxCell id="3WNf9FvNjMq8_hzcaYvk-30" value="500" style="shape=partialRectangle;html=1;whiteSpace=wrap;connectable=0;overflow=hidden;fillColor=none;top=0;left=0;bottom=0;right=0;" vertex="1" parent="3WNf9FvNjMq8_hzcaYvk-27">
          <mxGeometry x="113" width="57" height="25" as="geometry" />
        </mxCell>
        <mxCell id="3WNf9FvNjMq8_hzcaYvk-31" value="" style="shape=partialRectangle;html=1;whiteSpace=wrap;collapsible=0;dropTarget=0;pointerEvents=0;fillColor=none;top=0;left=0;bottom=0;right=0;points=[[0,0.5],[1,0.5]];portConstraint=eastwest;" vertex="1" parent="3WNf9FvNjMq8_hzcaYvk-10">
          <mxGeometry y="125" width="170" height="25" as="geometry" />
        </mxCell>
        <mxCell id="3WNf9FvNjMq8_hzcaYvk-32" value="4" style="shape=partialRectangle;html=1;whiteSpace=wrap;connectable=0;overflow=hidden;fillColor=none;top=0;left=0;bottom=0;right=0;" vertex="1" parent="3WNf9FvNjMq8_hzcaYvk-31">
          <mxGeometry width="57" height="25" as="geometry" />
        </mxCell>
        <mxCell id="3WNf9FvNjMq8_hzcaYvk-33" value="2000" style="shape=partialRectangle;html=1;whiteSpace=wrap;connectable=0;overflow=hidden;fillColor=none;top=0;left=0;bottom=0;right=0;" vertex="1" parent="3WNf9FvNjMq8_hzcaYvk-31">
          <mxGeometry x="57" width="56" height="25" as="geometry" />
        </mxCell>
        <mxCell id="3WNf9FvNjMq8_hzcaYvk-34" value="500" style="shape=partialRectangle;html=1;whiteSpace=wrap;connectable=0;overflow=hidden;fillColor=none;top=0;left=0;bottom=0;right=0;" vertex="1" parent="3WNf9FvNjMq8_hzcaYvk-31">
          <mxGeometry x="113" width="57" height="25" as="geometry" />
        </mxCell>
        <mxCell id="3WNf9FvNjMq8_hzcaYvk-35" value="&lt;font style=&quot;font-size: 16px&quot;&gt;Register in processor&lt;/font&gt;" style="text;html=1;align=center;verticalAlign=middle;resizable=0;points=[];autosize=1;" vertex="1" parent="1">
          <mxGeometry x="310" y="180" width="170" height="20" as="geometry" />
        </mxCell>
        <mxCell id="3WNf9FvNjMq8_hzcaYvk-38" value="" style="endArrow=classic;html=1;strokeWidth=2;fillColor=#e51400;strokeColor=#B20000;entryX=0.5;entryY=1;entryDx=0;entryDy=0;" edge="1" parent="1" target="3WNf9FvNjMq8_hzcaYvk-39">
          <mxGeometry width="50" height="50" relative="1" as="geometry">
            <mxPoint x="390" y="438" as="sourcePoint" />
            <mxPoint x="650" y="470" as="targetPoint" />
            <Array as="points">
              <mxPoint x="570" y="438" />
              <mxPoint x="655" y="438" />
            </Array>
          </mxGeometry>
        </mxCell>
        <mxCell id="3WNf9FvNjMq8_hzcaYvk-54" style="rounded=0;orthogonalLoop=1;jettySize=auto;html=1;entryX=0;entryY=0.5;entryDx=0;entryDy=0;strokeWidth=2;fillColor=#e51400;strokeColor=#B20000;" edge="1" parent="1" source="3WNf9FvNjMq8_hzcaYvk-39" target="3WNf9FvNjMq8_hzcaYvk-46">
          <mxGeometry relative="1" as="geometry">
            <Array as="points">
              <mxPoint x="720" y="265" />
              <mxPoint x="720" y="320" />
            </Array>
          </mxGeometry>
        </mxCell>
        <mxCell id="3WNf9FvNjMq8_hzcaYvk-39" value="&lt;font style=&quot;font-size: 22px&quot;&gt;+&lt;/font&gt;" style="ellipse;whiteSpace=wrap;html=1;aspect=fixed;gradientColor=#b3b3b3;fillColor=#f5f5f5;strokeColor=#666666;" vertex="1" parent="1">
          <mxGeometry x="640" y="250" width="30" height="30" as="geometry" />
        </mxCell>
        <mxCell id="3WNf9FvNjMq8_hzcaYvk-41" value="" style="shape=table;html=1;whiteSpace=wrap;startSize=0;container=1;collapsible=0;childLayout=tableLayout;" vertex="1" parent="1">
          <mxGeometry x="750" y="220" width="60" height="240" as="geometry" />
        </mxCell>
        <mxCell id="3WNf9FvNjMq8_hzcaYvk-42" value="" style="shape=partialRectangle;html=1;whiteSpace=wrap;collapsible=0;dropTarget=0;pointerEvents=0;fillColor=none;top=0;left=0;bottom=0;right=0;points=[[0,0.5],[1,0.5]];portConstraint=eastwest;" vertex="1" parent="3WNf9FvNjMq8_hzcaYvk-41">
          <mxGeometry width="60" height="40" as="geometry" />
        </mxCell>
        <mxCell id="3WNf9FvNjMq8_hzcaYvk-43" value="Stack" style="shape=partialRectangle;html=1;whiteSpace=wrap;connectable=0;overflow=hidden;fillColor=#dae8fc;top=0;left=0;bottom=0;right=0;strokeColor=#6c8ebf;" vertex="1" parent="3WNf9FvNjMq8_hzcaYvk-42">
          <mxGeometry width="60" height="40" as="geometry" />
        </mxCell>
        <mxCell id="3WNf9FvNjMq8_hzcaYvk-44" value="" style="shape=partialRectangle;html=1;whiteSpace=wrap;collapsible=0;dropTarget=0;pointerEvents=0;fillColor=none;top=0;left=0;bottom=0;right=0;points=[[0,0.5],[1,0.5]];portConstraint=eastwest;" vertex="1" parent="3WNf9FvNjMq8_hzcaYvk-41">
          <mxGeometry y="40" width="60" height="40" as="geometry" />
        </mxCell>
        <mxCell id="3WNf9FvNjMq8_hzcaYvk-45" value="" style="shape=partialRectangle;html=1;whiteSpace=wrap;connectable=0;overflow=hidden;fillColor=none;top=0;left=0;bottom=0;right=0;" vertex="1" parent="3WNf9FvNjMq8_hzcaYvk-44">
          <mxGeometry width="60" height="40" as="geometry" />
        </mxCell>
        <mxCell id="3WNf9FvNjMq8_hzcaYvk-46" value="" style="shape=partialRectangle;html=1;whiteSpace=wrap;collapsible=0;dropTarget=0;pointerEvents=0;fillColor=none;top=0;left=0;bottom=0;right=0;points=[[0,0.5],[1,0.5]];portConstraint=eastwest;" vertex="1" parent="3WNf9FvNjMq8_hzcaYvk-41">
          <mxGeometry y="80" width="60" height="40" as="geometry" />
        </mxCell>
        <mxCell id="3WNf9FvNjMq8_hzcaYvk-47" value="Text" style="shape=partialRectangle;html=1;whiteSpace=wrap;connectable=0;overflow=hidden;fillColor=#e1d5e7;top=0;left=0;bottom=0;right=0;strokeColor=#9673a6;" vertex="1" parent="3WNf9FvNjMq8_hzcaYvk-46">
          <mxGeometry width="60" height="40" as="geometry" />
        </mxCell>
        <mxCell id="3WNf9FvNjMq8_hzcaYvk-48" value="" style="shape=partialRectangle;html=1;whiteSpace=wrap;collapsible=0;dropTarget=0;pointerEvents=0;fillColor=none;top=0;left=0;bottom=0;right=0;points=[[0,0.5],[1,0.5]];portConstraint=eastwest;" vertex="1" parent="3WNf9FvNjMq8_hzcaYvk-41">
          <mxGeometry y="120" width="60" height="40" as="geometry" />
        </mxCell>
        <mxCell id="3WNf9FvNjMq8_hzcaYvk-49" value="Heap" style="shape=partialRectangle;html=1;whiteSpace=wrap;connectable=0;overflow=hidden;fillColor=#f8cecc;top=0;left=0;bottom=0;right=0;strokeColor=#b85450;" vertex="1" parent="3WNf9FvNjMq8_hzcaYvk-48">
          <mxGeometry width="60" height="40" as="geometry" />
        </mxCell>
        <mxCell id="3WNf9FvNjMq8_hzcaYvk-50" value="" style="shape=partialRectangle;html=1;whiteSpace=wrap;collapsible=0;dropTarget=0;pointerEvents=0;fillColor=none;top=0;left=0;bottom=0;right=0;points=[[0,0.5],[1,0.5]];portConstraint=eastwest;" vertex="1" parent="3WNf9FvNjMq8_hzcaYvk-41">
          <mxGeometry y="160" width="60" height="40" as="geometry" />
        </mxCell>
        <mxCell id="3WNf9FvNjMq8_hzcaYvk-51" value="" style="shape=partialRectangle;html=1;whiteSpace=wrap;connectable=0;overflow=hidden;fillColor=none;top=0;left=0;bottom=0;right=0;" vertex="1" parent="3WNf9FvNjMq8_hzcaYvk-50">
          <mxGeometry width="60" height="40" as="geometry" />
        </mxCell>
        <mxCell id="3WNf9FvNjMq8_hzcaYvk-52" style="shape=partialRectangle;html=1;whiteSpace=wrap;collapsible=0;dropTarget=0;pointerEvents=0;fillColor=none;top=0;left=0;bottom=0;right=0;points=[[0,0.5],[1,0.5]];portConstraint=eastwest;" vertex="1" parent="3WNf9FvNjMq8_hzcaYvk-41">
          <mxGeometry y="200" width="60" height="40" as="geometry" />
        </mxCell>
        <mxCell id="3WNf9FvNjMq8_hzcaYvk-53" value="Data" style="shape=partialRectangle;html=1;whiteSpace=wrap;connectable=0;overflow=hidden;fillColor=#fff2cc;top=0;left=0;bottom=0;right=0;strokeColor=#d6b656;" vertex="1" parent="3WNf9FvNjMq8_hzcaYvk-52">
          <mxGeometry width="60" height="40" as="geometry" />
        </mxCell>
        <mxCell id="3WNf9FvNjMq8_hzcaYvk-55" value="RAM&lt;br&gt;(physical view)" style="text;html=1;align=center;verticalAlign=middle;resizable=0;points=[];autosize=1;" vertex="1" parent="1">
          <mxGeometry x="740" y="175" width="90" height="30" as="geometry" />
        </mxCell>
        <mxCell id="3WNf9FvNjMq8_hzcaYvk-56" value="&lt;font style=&quot;font-size: 14px&quot;&gt;Segment Descriptor Table&lt;/font&gt;" style="text;html=1;align=center;verticalAlign=middle;resizable=0;points=[];autosize=1;" vertex="1" parent="1">
          <mxGeometry x="305" y="320" width="180" height="20" as="geometry" />
        </mxCell>
      </root>
    </mxGraphModel>
  </diagram>
</mxfile>
